<?xml version="1.0" encoding="UTF-8"?>
<svg width="345px" height="60px" viewBox="0 0 345 60" version="1.1" xmlns="http://www.w3.org/2000/svg" xmlns:xlink="http://www.w3.org/1999/xlink">
    <!-- Generator: Sketch 49 (51002) - http://www.bohemiancoding.com/sketch -->
    <title>Logo</title>
    <desc>Created with Sketch.</desc>
    <defs></defs>
    <g id="Welcome" stroke="none" stroke-width="1" fill="none" fill-rule="evenodd">
        <g id="-Дом-сбережений-Desktop-HD" transform="translate(-130.000000, -25.000000)">
            <g id="Logo" transform="translate(130.000000, 25.000000)">
                <path d="M61.44,50.816 L60.688,50.816 L60.688,56 L59.36,56 L59.36,44.8 L60.688,44.8 L60.688,50.016 L61.408,49.792 L65.168,44.8 L66.704,44.8 L62.96,49.616 L62.288,50.144 L63.104,50.784 L67.2,56 L65.52,56 L61.44,50.816 Z M68.992,48 L69.872,48 L70.112,48.96 L70.176,48.96 C70.4213346,48.5866648 70.7386647,48.3013343 71.128,48.104 C71.5173353,47.9066657 71.9626642,47.808 72.464,47.808 C73.530672,47.808 74.3253307,48.1226635 74.848,48.752 C75.3706693,49.3813365 75.632,50.4106595 75.632,51.84 C75.632,52.5120034 75.5440009,53.1173306 75.368,53.656 C75.1919991,54.1946694 74.9440016,54.6506648 74.624,55.024 C74.3039984,55.3973352 73.9173356,55.6853323 73.464,55.888 C73.0106644,56.0906677 72.5066694,56.192 71.952,56.192 C71.5573314,56.192 71.2453345,56.1680002 71.016,56.12 C70.7866655,56.0719998 70.538668,55.9893339 70.272,55.872 L70.272,59.2 L68.992,59.2 L68.992,48 Z M72.224,48.928 C71.6799973,48.928 71.2506682,49.0693319 70.936,49.352 C70.6213318,49.6346681 70.4000006,50.0639971 70.272,50.64 L70.272,54.608 C70.464001,54.7573341 70.6826654,54.8719996 70.928,54.952 C71.1733346,55.0320004 71.4986646,55.072 71.904,55.072 C72.6400037,55.072 73.2239978,54.7973361 73.656,54.248 C74.0880022,53.6986639 74.304,52.890672 74.304,51.824 C74.304,51.3866645 74.266667,50.9893351 74.192,50.632 C74.117333,50.2746649 73.9973342,49.9706679 73.832,49.72 C73.6666658,49.4693321 73.4533346,49.2746674 73.192,49.136 C72.9306654,48.9973326 72.6080019,48.928 72.224,48.928 Z M83.488,55.36 C83.1679984,55.6160013 82.7653358,55.8186659 82.28,55.968 C81.7946642,56.1173341 81.2800027,56.192 80.736,56.192 C80.127997,56.192 79.6000022,56.0933343 79.152,55.896 C78.7039978,55.6986657 78.3360014,55.4160018 78.048,55.048 C77.7599986,54.6799982 77.5466674,54.2400026 77.408,53.728 C77.2693326,53.2159974 77.2,52.6400032 77.2,52 C77.2,50.6346598 77.503997,49.5946702 78.112,48.88 C78.720003,48.1653298 79.5893277,47.808 80.72,47.808 C81.0826685,47.808 81.4453315,47.8479996 81.808,47.928 C82.1706685,48.0080004 82.4959986,48.1599989 82.784,48.384 C83.0720014,48.6080011 83.3066658,48.9253313 83.488,49.336 C83.6693342,49.7466687 83.76,50.2879966 83.76,50.96 C83.76,51.3120018 83.7280003,51.7013312 83.664,52.128 L78.528,52.128 C78.528,52.5973357 78.5759995,53.0133315 78.672,53.376 C78.7680005,53.7386685 78.9173323,54.0453321 79.12,54.296 C79.3226677,54.5466679 79.586665,54.738666 79.912,54.872 C80.237335,55.005334 80.6346643,55.072 81.104,55.072 C81.4666685,55.072 81.8293315,55.0080006 82.192,54.88 C82.5546685,54.7519994 82.8266658,54.6026675 83.008,54.432 L83.488,55.36 Z M80.736,48.928 C80.1066635,48.928 79.6026686,49.0933317 79.224,49.424 C78.8453314,49.7546683 78.618667,50.319996 78.544,51.12 L82.512,51.12 C82.512,50.3093293 82.3573349,49.741335 82.048,49.416 C81.7386651,49.090665 81.3013362,48.928 80.736,48.928 Z M92.848,58.032 L91.984,58.032 L91.744,56 L85.728,56 L85.488,58.032 L84.624,58.032 L84.624,54.88 L85.568,54.88 C85.6533338,54.7626661 85.7653326,54.5520015 85.904,54.248 C86.0426674,53.9439985 86.178666,53.5173361 86.312,52.968 C86.445334,52.4186639 86.5626662,51.7360041 86.664,50.92 C86.7653338,50.1039959 86.8266666,49.1306723 86.848,48 L91.68,48 L91.68,54.88 L92.848,54.88 L92.848,58.032 Z M90.4,54.88 L90.4,49.12 L88,49.12 C87.9786666,49.5680022 87.9413336,50.0559974 87.888,50.584 C87.8346664,51.1120026 87.7626671,51.6399974 87.672,52.168 C87.5813329,52.6960026 87.4666674,53.1946643 87.328,53.664 C87.1893326,54.1333357 87.0293342,54.538665 86.848,54.88 L90.4,54.88 Z M99.424,51.264 L99.472,50.272 L99.424,50.272 L98.768,51.296 L95.168,56 L94.432,56 L94.432,48 L95.712,48 L95.712,52.88 L95.664,53.824 L95.728,53.824 L96.352,52.832 L99.952,48 L100.704,48 L100.704,56 L99.424,56 L99.424,51.264 Z M108.256,49.12 L105.76,49.12 L105.76,56 L104.48,56 L104.48,49.12 L101.984,49.12 L101.984,48 L108.256,48 L108.256,49.12 Z M114.416,52.464 L110.8,52.464 L110.8,56 L109.52,56 L109.52,48 L110.8,48 L110.8,51.344 L114.416,51.344 L114.416,48 L115.696,48 L115.696,56 L114.416,56 L114.416,52.464 Z M119.44,54.88 C119.834669,54.9440003 120.213332,54.976 120.576,54.976 C121.248003,54.976 121.717332,54.8453346 121.984,54.584 C122.250668,54.3226654 122.384,53.9520024 122.384,53.472 C122.384,53.0453312 122.253335,52.6933347 121.992,52.416 C121.730665,52.1386653 121.27467,52 120.624,52 C120.442666,52 120.245334,52.0053333 120.032,52.016 C119.818666,52.0266667 119.621334,52.0586664 119.44,52.112 L119.44,54.88 Z M119.44,51.056 C119.696001,51.0133331 119.941332,50.9840001 120.176,50.968 C120.410668,50.9519999 120.634666,50.944 120.848,50.944 C121.392003,50.944 121.847998,51.0053327 122.216,51.128 C122.584002,51.2506673 122.879999,51.4186656 123.104,51.632 C123.328001,51.8453344 123.485333,52.0986652 123.576,52.392 C123.666667,52.6853348 123.712,52.9973317 123.712,53.328 C123.712,54.2986715 123.442669,55.0026645 122.904,55.44 C122.365331,55.8773355 121.493339,56.096 120.288,56.096 C119.60533,56.096 118.896004,56.0640003 118.16,56 L118.16,48 L119.44,48 L119.44,51.056 Z M124.976,48 L126.256,48 L126.256,56 L124.976,56 L124.976,48 Z M133.712,51.264 L133.76,50.272 L133.712,50.272 L133.056,51.296 L129.456,56 L128.72,56 L128.72,48 L130,48 L130,52.88 L129.952,53.824 L130.016,53.824 L130.64,52.832 L134.24,48 L134.992,48 L134.992,56 L133.712,56 L133.712,51.264 Z M130.56,44.768 C130.666667,45.2586691 130.850665,45.599999 131.112,45.792 C131.373335,45.984001 131.674665,46.08 132.016,46.08 C132.357335,46.08 132.661332,45.9786677 132.928,45.776 C133.194668,45.5733323 133.376,45.242669 133.472,44.784 L134.432,45.088 C134.336,45.7066698 134.061336,46.1813317 133.608,46.512 C133.154664,46.8426683 132.613336,47.008 131.984,47.008 C131.695999,47.008 131.410668,46.970667 131.128,46.896 C130.845332,46.821333 130.592001,46.7093341 130.368,46.56 C130.143999,46.4106659 129.952001,46.2186678 129.792,45.984 C129.631999,45.7493322 129.525334,45.4720016 129.472,45.152 L130.56,44.768 Z M146.544,49.12 L143.008,49.12 L143.008,56 L141.728,56 L141.728,48 L147.824,48 L147.824,56 L146.544,56 L146.544,49.12 Z M149.84,52 C149.84,50.6453266 150.14133,49.6080036 150.744,48.888 C151.34667,48.1679964 152.213328,47.808 153.344,47.808 C153.941336,47.808 154.461331,47.9066657 154.904,48.104 C155.346669,48.3013343 155.711999,48.5839982 156,48.952 C156.288001,49.3200018 156.501333,49.7626641 156.64,50.28 C156.778667,50.7973359 156.848,51.3706635 156.848,52 C156.848,53.3546734 156.54667,54.3919964 155.944,55.112 C155.34133,55.8320036 154.474672,56.192 153.344,56.192 C152.746664,56.192 152.226669,56.0933343 151.784,55.896 C151.341331,55.6986657 150.976001,55.4160018 150.688,55.048 C150.399999,54.6799982 150.186667,54.2373359 150.048,53.72 C149.909333,53.2026641 149.84,52.6293365 149.84,52 Z M151.168,52 C151.168,52.4053354 151.208,52.7946648 151.288,53.168 C151.368,53.5413352 151.493332,53.8666653 151.664,54.144 C151.834668,54.4213347 152.058665,54.6453325 152.336,54.816 C152.613335,54.9866675 152.949331,55.072 153.344,55.072 C154.794674,55.0826667 155.52,54.058677 155.52,52 C155.52,51.5839979 155.48,51.1893352 155.4,50.816 C155.32,50.4426648 155.194668,50.1173347 155.024,49.84 C154.853332,49.5626653 154.629335,49.3413342 154.352,49.176 C154.074665,49.0106658 153.738669,48.928 153.344,48.928 C151.893326,48.9173333 151.168,49.941323 151.168,52 Z M163.952,49.12 L161.456,49.12 L161.456,56 L160.176,56 L160.176,49.12 L157.68,49.12 L157.68,48 L163.952,48 L163.952,49.12 Z M165.216,48 L166.096,48 L166.336,48.96 L166.4,48.96 C166.645335,48.5866648 166.962665,48.3013343 167.352,48.104 C167.741335,47.9066657 168.186664,47.808 168.688,47.808 C169.754672,47.808 170.549331,48.1226635 171.072,48.752 C171.594669,49.3813365 171.856,50.4106595 171.856,51.84 C171.856,52.5120034 171.768001,53.1173306 171.592,53.656 C171.415999,54.1946694 171.168002,54.6506648 170.848,55.024 C170.527998,55.3973352 170.141336,55.6853323 169.688,55.888 C169.234664,56.0906677 168.730669,56.192 168.176,56.192 C167.781331,56.192 167.469334,56.1680002 167.24,56.12 C167.010666,56.0719998 166.762668,55.9893339 166.496,55.872 L166.496,59.2 L165.216,59.2 L165.216,48 Z M168.448,48.928 C167.903997,48.928 167.474668,49.0693319 167.16,49.352 C166.845332,49.6346681 166.624001,50.0639971 166.496,50.64 L166.496,54.608 C166.688001,54.7573341 166.906665,54.8719996 167.152,54.952 C167.397335,55.0320004 167.722665,55.072 168.128,55.072 C168.864004,55.072 169.447998,54.7973361 169.88,54.248 C170.312002,53.6986639 170.528,52.890672 170.528,51.824 C170.528,51.3866645 170.490667,50.9893351 170.416,50.632 C170.341333,50.2746649 170.221334,49.9706679 170.056,49.72 C169.890666,49.4693321 169.677335,49.2746674 169.416,49.136 C169.154665,48.9973326 168.832002,48.928 168.448,48.928 Z M179.712,55.36 C179.391998,55.6160013 178.989336,55.8186659 178.504,55.968 C178.018664,56.1173341 177.504003,56.192 176.96,56.192 C176.351997,56.192 175.824002,56.0933343 175.376,55.896 C174.927998,55.6986657 174.560001,55.4160018 174.272,55.048 C173.983999,54.6799982 173.770667,54.2400026 173.632,53.728 C173.493333,53.2159974 173.424,52.6400032 173.424,52 C173.424,50.6346598 173.727997,49.5946702 174.336,48.88 C174.944003,48.1653298 175.813328,47.808 176.944,47.808 C177.306668,47.808 177.669332,47.8479996 178.032,47.928 C178.394668,48.0080004 178.719999,48.1599989 179.008,48.384 C179.296001,48.6080011 179.530666,48.9253313 179.712,49.336 C179.893334,49.7466687 179.984,50.2879966 179.984,50.96 C179.984,51.3120018 179.952,51.7013312 179.888,52.128 L174.752,52.128 C174.752,52.5973357 174.8,53.0133315 174.896,53.376 C174.992,53.7386685 175.141332,54.0453321 175.344,54.296 C175.546668,54.5466679 175.810665,54.738666 176.136,54.872 C176.461335,55.005334 176.858664,55.072 177.328,55.072 C177.690668,55.072 178.053332,55.0080006 178.416,54.88 C178.778668,54.7519994 179.050666,54.6026675 179.232,54.432 L179.712,55.36 Z M176.96,48.928 C176.330664,48.928 175.826669,49.0933317 175.448,49.424 C175.069331,49.7546683 174.842667,50.319996 174.768,51.12 L178.736,51.12 C178.736,50.3093293 178.581335,49.741335 178.272,49.416 C177.962665,49.090665 177.525336,48.928 176.96,48.928 Z M182.736,49.424 C183.088002,48.9119974 183.477331,48.552001 183.904,48.344 C184.330669,48.135999 184.863997,48.032 185.504,48.032 C186.485338,48.032 187.239997,48.3519968 187.768,48.992 C188.296003,49.6320032 188.56,50.5759938 188.56,51.824 C188.56,53.2640072 188.253336,54.3519963 187.64,55.088 C187.026664,55.8240037 186.170672,56.192 185.072,56.192 C183.898661,56.192 183.01867,55.7866707 182.432,54.976 C181.84533,54.1653293 181.552,52.8906754 181.552,51.152 C181.552,50.2346621 181.597333,49.4506699 181.688,48.8 C181.778667,48.1493301 181.911999,47.6000022 182.088,47.152 C182.264001,46.7039978 182.477332,46.346668 182.728,46.08 C182.978668,45.813332 183.261332,45.6026674 183.576,45.448 C183.890668,45.2933326 184.234665,45.1840003 184.608,45.12 C184.981335,45.0559997 185.381331,45.0026669 185.808,44.96 C186.362669,44.9066664 186.797332,44.8453337 187.112,44.776 C187.426668,44.7066663 187.679999,44.5813342 187.872,44.4 L188.016,45.552 C187.909333,45.6480005 187.792001,45.7279997 187.664,45.792 C187.535999,45.8560003 187.381334,45.9093331 187.2,45.952 C187.018666,45.9946669 186.802668,46.0319998 186.552,46.064 C186.301332,46.0960002 186.010668,46.1226666 185.68,46.144 C185.221331,46.1760002 184.818668,46.2319996 184.472,46.312 C184.125332,46.3920004 183.826668,46.5466655 183.576,46.776 C183.325332,47.0053345 183.128001,47.3306646 182.984,47.752 C182.839999,48.1733354 182.741334,48.7306632 182.688,49.424 L182.736,49.424 Z M182.88,52.016 C182.88,52.4213354 182.922666,52.8106648 183.008,53.184 C183.093334,53.5573352 183.223999,53.8853319 183.4,54.168 C183.576001,54.4506681 183.802665,54.6719992 184.08,54.832 C184.357335,54.9920008 184.682665,55.072 185.056,55.072 C185.792004,55.072 186.338665,54.8080026 186.696,54.28 C187.053335,53.7519974 187.232,52.9706718 187.232,51.936 C187.232,51.5306646 187.194667,51.157335 187.12,50.816 C187.045333,50.474665 186.928001,50.1786679 186.768,49.928 C186.607999,49.6773321 186.405335,49.485334 186.16,49.352 C185.914665,49.218666 185.621335,49.152 185.28,49.152 C184.447996,49.1413333 183.840002,49.3839975 183.456,49.88 C183.071998,50.3760025 182.88,51.0879954 182.88,52.016 Z M195.568,51.264 L195.616,50.272 L195.568,50.272 L194.912,51.296 L191.312,56 L190.576,56 L190.576,48 L191.856,48 L191.856,52.88 L191.808,53.824 L191.872,53.824 L192.496,52.832 L196.096,48 L196.848,48 L196.848,56 L195.568,56 L195.568,51.264 Z M204.4,49.12 L201.904,49.12 L201.904,56 L200.624,56 L200.624,49.12 L198.128,49.12 L198.128,48 L204.4,48 L204.4,49.12 Z M211.504,55.36 C211.183998,55.6160013 210.781336,55.8186659 210.296,55.968 C209.810664,56.1173341 209.296003,56.192 208.752,56.192 C208.143997,56.192 207.616002,56.0933343 207.168,55.896 C206.719998,55.6986657 206.352001,55.4160018 206.064,55.048 C205.775999,54.6799982 205.562667,54.2400026 205.424,53.728 C205.285333,53.2159974 205.216,52.6400032 205.216,52 C205.216,50.6346598 205.519997,49.5946702 206.128,48.88 C206.736003,48.1653298 207.605328,47.808 208.736,47.808 C209.098668,47.808 209.461332,47.8479996 209.824,47.928 C210.186668,48.0080004 210.511999,48.1599989 210.8,48.384 C211.088001,48.6080011 211.322666,48.9253313 211.504,49.336 C211.685334,49.7466687 211.776,50.2879966 211.776,50.96 C211.776,51.3120018 211.744,51.7013312 211.68,52.128 L206.544,52.128 C206.544,52.5973357 206.592,53.0133315 206.688,53.376 C206.784,53.7386685 206.933332,54.0453321 207.136,54.296 C207.338668,54.5466679 207.602665,54.738666 207.928,54.872 C208.253335,55.005334 208.650664,55.072 209.12,55.072 C209.482668,55.072 209.845332,55.0080006 210.208,54.88 C210.570668,54.7519994 210.842666,54.6026675 211.024,54.432 L211.504,55.36 Z M208.752,48.928 C208.122664,48.928 207.618669,49.0933317 207.24,49.424 C206.861331,49.7546683 206.634667,50.319996 206.56,51.12 L210.528,51.12 C210.528,50.3093293 210.373335,49.741335 210.064,49.416 C209.754665,49.090665 209.317336,48.928 208.752,48.928 Z M218.096,49.12 L215.776,49.12 C215.744,49.5680022 215.712,50.0506641 215.68,50.568 C215.648,51.0853359 215.6,51.6026641 215.536,52.12 C215.472,52.6373359 215.386667,53.133331 215.28,53.608 C215.173333,54.082669 215.037334,54.5013315 214.872,54.864 C214.706666,55.2266685 214.504001,55.5173322 214.264,55.736 C214.023999,55.9546678 213.738668,56.064 213.408,56.064 C213.205332,56.064 213.029334,56.0533334 212.88,56.032 C212.730666,56.0106666 212.597334,55.9733336 212.48,55.92 L212.672,54.848 C212.800001,54.8906669 212.938666,54.912 213.088,54.912 C213.301334,54.912 213.493332,54.8213342 213.664,54.64 C213.834668,54.4586658 213.983999,54.1146692 214.112,53.608 C214.240001,53.1013308 214.346666,52.4000045 214.432,51.504 C214.517334,50.6079955 214.576,49.4400072 214.608,48 L219.376,48 L219.376,56 L218.096,56 L218.096,49.12 Z M223.12,54.88 C223.514669,54.9440003 223.893332,54.976 224.256,54.976 C224.928003,54.976 225.423998,54.8453346 225.744,54.584 C226.064002,54.3226654 226.224,53.9520024 226.224,53.472 C226.224,53.0453312 226.069335,52.6933347 225.76,52.416 C225.450665,52.1386653 224.965337,52 224.304,52 C224.122666,52 223.925334,52.0053333 223.712,52.016 C223.498666,52.0266667 223.301334,52.0586664 223.12,52.112 L223.12,54.88 Z M223.12,51.056 C223.376001,51.0133331 223.621332,50.9840001 223.856,50.968 C224.090668,50.9519999 224.314666,50.944 224.528,50.944 C225.082669,50.944 225.551998,51.0053327 225.936,51.128 C226.320002,51.2506673 226.631999,51.4186656 226.872,51.632 C227.112001,51.8453344 227.285333,52.0986652 227.392,52.392 C227.498667,52.6853348 227.552,52.9973317 227.552,53.328 C227.552,54.2986715 227.261336,55.0026645 226.68,55.44 C226.098664,55.8773355 225.194673,56.096 223.968,56.096 C223.28533,56.096 222.576004,56.0640003 221.84,56 L221.84,48 L223.12,48 L223.12,51.056 Z M234.72,55.472 C234.399998,55.7066678 234.021336,55.8853327 233.584,56.008 C233.146664,56.1306673 232.688002,56.192 232.208,56.192 C231.58933,56.192 231.066669,56.0933343 230.64,55.896 C230.213331,55.6986657 229.864001,55.4160018 229.592,55.048 C229.319999,54.6799982 229.122667,54.2373359 229,53.72 C228.877333,53.2026641 228.816,52.6293365 228.816,52 C228.816,50.6453266 229.114664,49.6080036 229.712,48.888 C230.309336,48.1679964 231.167994,47.808 232.288,47.808 C232.800003,47.808 233.234665,47.8479996 233.592,47.928 C233.949335,48.0080004 234.271999,48.1226659 234.56,48.272 L234.192,49.376 C233.946665,49.2373326 233.674668,49.1280004 233.376,49.048 C233.077332,48.9679996 232.757335,48.928 232.416,48.928 C230.901326,48.928 230.144,49.9519898 230.144,52 C230.144,52.4053354 230.184,52.7919982 230.264,53.16 C230.344,53.5280018 230.477332,53.8533319 230.664,54.136 C230.850668,54.4186681 231.095998,54.6453325 231.4,54.816 C231.704002,54.9866675 232.079998,55.072 232.528,55.072 C232.912002,55.072 233.255998,55.0133339 233.56,54.896 C233.864002,54.7786661 234.111999,54.6453341 234.304,54.496 L234.72,55.472 Z M238.496,52.4 L237.76,52.4 L237.76,56 L236.48,56 L236.48,48 L237.76,48 L237.76,51.616 L238.448,51.392 L241.008,48 L242.4,48 L239.92,51.216 L239.248,51.744 L240.08,52.384 L242.752,56 L241.168,56 L238.496,52.4 Z M249.12,51.264 L249.168,50.272 L249.12,50.272 L248.464,51.296 L244.864,56 L244.128,56 L244.128,48 L245.408,48 L245.408,52.88 L245.36,53.824 L245.424,53.824 L246.048,52.832 L249.648,48 L250.4,48 L250.4,56 L249.12,56 L249.12,51.264 Z M257.856,51.264 L257.904,50.272 L257.856,50.272 L257.2,51.296 L253.6,56 L252.864,56 L252.864,48 L254.144,48 L254.144,52.88 L254.096,53.824 L254.16,53.824 L254.784,52.832 L258.384,48 L259.136,48 L259.136,56 L257.856,56 L257.856,51.264 Z M254.704,44.768 C254.810667,45.2586691 254.994665,45.599999 255.256,45.792 C255.517335,45.984001 255.818665,46.08 256.16,46.08 C256.501335,46.08 256.805332,45.9786677 257.072,45.776 C257.338668,45.5733323 257.52,45.242669 257.616,44.784 L258.576,45.088 C258.48,45.7066698 258.205336,46.1813317 257.752,46.512 C257.298664,46.8426683 256.757336,47.008 256.128,47.008 C255.839999,47.008 255.554668,46.970667 255.272,46.896 C254.989332,46.821333 254.736001,46.7093341 254.512,46.56 C254.287999,46.4106659 254.096001,46.2186678 253.936,45.984 C253.775999,45.7493322 253.669334,45.4720016 253.616,45.152 L254.704,44.768 Z M267.888,52.4 L267.152,52.4 L267.152,56 L265.872,56 L265.872,48 L267.152,48 L267.152,51.616 L267.84,51.392 L270.4,48 L271.792,48 L269.312,51.216 L268.64,51.744 L269.472,52.384 L272.144,56 L270.56,56 L267.888,52.4 Z M273.072,52 C273.072,50.6453266 273.37333,49.6080036 273.976,48.888 C274.57867,48.1679964 275.445328,47.808 276.576,47.808 C277.173336,47.808 277.693331,47.9066657 278.136,48.104 C278.578669,48.3013343 278.943999,48.5839982 279.232,48.952 C279.520001,49.3200018 279.733333,49.7626641 279.872,50.28 C280.010667,50.7973359 280.08,51.3706635 280.08,52 C280.08,53.3546734 279.77867,54.3919964 279.176,55.112 C278.57333,55.8320036 277.706672,56.192 276.576,56.192 C275.978664,56.192 275.458669,56.0933343 275.016,55.896 C274.573331,55.6986657 274.208001,55.4160018 273.92,55.048 C273.631999,54.6799982 273.418667,54.2373359 273.28,53.72 C273.141333,53.2026641 273.072,52.6293365 273.072,52 Z M274.4,52 C274.4,52.4053354 274.44,52.7946648 274.52,53.168 C274.6,53.5413352 274.725332,53.8666653 274.896,54.144 C275.066668,54.4213347 275.290665,54.6453325 275.568,54.816 C275.845335,54.9866675 276.181331,55.072 276.576,55.072 C278.026674,55.0826667 278.752,54.058677 278.752,52 C278.752,51.5839979 278.712,51.1893352 278.632,50.816 C278.552,50.4426648 278.426668,50.1173347 278.256,49.84 C278.085332,49.5626653 277.861335,49.3413342 277.584,49.176 C277.306665,49.0106658 276.970669,48.928 276.576,48.928 C275.125326,48.9173333 274.4,49.941323 274.4,52 Z M281.648,52 C281.648,50.6453266 281.94933,49.6080036 282.552,48.888 C283.15467,48.1679964 284.021328,47.808 285.152,47.808 C285.749336,47.808 286.269331,47.9066657 286.712,48.104 C287.154669,48.3013343 287.519999,48.5839982 287.808,48.952 C288.096001,49.3200018 288.309333,49.7626641 288.448,50.28 C288.586667,50.7973359 288.656,51.3706635 288.656,52 C288.656,53.3546734 288.35467,54.3919964 287.752,55.112 C287.14933,55.8320036 286.282672,56.192 285.152,56.192 C284.554664,56.192 284.034669,56.0933343 283.592,55.896 C283.149331,55.6986657 282.784001,55.4160018 282.496,55.048 C282.207999,54.6799982 281.994667,54.2373359 281.856,53.72 C281.717333,53.2026641 281.648,52.6293365 281.648,52 Z M282.976,52 C282.976,52.4053354 283.016,52.7946648 283.096,53.168 C283.176,53.5413352 283.301332,53.8666653 283.472,54.144 C283.642668,54.4213347 283.866665,54.6453325 284.144,54.816 C284.421335,54.9866675 284.757331,55.072 285.152,55.072 C286.602674,55.0826667 287.328,54.058677 287.328,52 C287.328,51.5839979 287.288,51.1893352 287.208,50.816 C287.128,50.4426648 287.002668,50.1173347 286.832,49.84 C286.661332,49.5626653 286.437335,49.3413342 286.16,49.176 C285.882665,49.0106658 285.546669,48.928 285.152,48.928 C283.701326,48.9173333 282.976,49.941323 282.976,52 Z M295.488,49.12 L291.952,49.12 L291.952,56 L290.672,56 L290.672,48 L296.768,48 L296.768,56 L295.488,56 L295.488,49.12 Z M305.072,55.36 C304.751998,55.6160013 304.349336,55.8186659 303.864,55.968 C303.378664,56.1173341 302.864003,56.192 302.32,56.192 C301.711997,56.192 301.184002,56.0933343 300.736,55.896 C300.287998,55.6986657 299.920001,55.4160018 299.632,55.048 C299.343999,54.6799982 299.130667,54.2400026 298.992,53.728 C298.853333,53.2159974 298.784,52.6400032 298.784,52 C298.784,50.6346598 299.087997,49.5946702 299.696,48.88 C300.304003,48.1653298 301.173328,47.808 302.304,47.808 C302.666668,47.808 303.029332,47.8479996 303.392,47.928 C303.754668,48.0080004 304.079999,48.1599989 304.368,48.384 C304.656001,48.6080011 304.890666,48.9253313 305.072,49.336 C305.253334,49.7466687 305.344,50.2879966 305.344,50.96 C305.344,51.3120018 305.312,51.7013312 305.248,52.128 L300.112,52.128 C300.112,52.5973357 300.16,53.0133315 300.256,53.376 C300.352,53.7386685 300.501332,54.0453321 300.704,54.296 C300.906668,54.5466679 301.170665,54.738666 301.496,54.872 C301.821335,55.005334 302.218664,55.072 302.688,55.072 C303.050668,55.072 303.413332,55.0080006 303.776,54.88 C304.138668,54.7519994 304.410666,54.6026675 304.592,54.432 L305.072,55.36 Z M302.32,48.928 C301.690664,48.928 301.186669,49.0933317 300.808,49.424 C300.429331,49.7546683 300.202667,50.319996 300.128,51.12 L304.096,51.12 C304.096,50.3093293 303.941335,49.741335 303.632,49.416 C303.322665,49.090665 302.885336,48.928 302.32,48.928 Z M307.36,48 L308.24,48 L308.48,48.96 L308.544,48.96 C308.789335,48.5866648 309.106665,48.3013343 309.496,48.104 C309.885335,47.9066657 310.330664,47.808 310.832,47.808 C311.898672,47.808 312.693331,48.1226635 313.216,48.752 C313.738669,49.3813365 314,50.4106595 314,51.84 C314,52.5120034 313.912001,53.1173306 313.736,53.656 C313.559999,54.1946694 313.312002,54.6506648 312.992,55.024 C312.671998,55.3973352 312.285336,55.6853323 311.832,55.888 C311.378664,56.0906677 310.874669,56.192 310.32,56.192 C309.925331,56.192 309.613334,56.1680002 309.384,56.12 C309.154666,56.0719998 308.906668,55.9893339 308.64,55.872 L308.64,59.2 L307.36,59.2 L307.36,48 Z M310.592,48.928 C310.047997,48.928 309.618668,49.0693319 309.304,49.352 C308.989332,49.6346681 308.768001,50.0639971 308.64,50.64 L308.64,54.608 C308.832001,54.7573341 309.050665,54.8719996 309.296,54.952 C309.541335,55.0320004 309.866665,55.072 310.272,55.072 C311.008004,55.072 311.591998,54.7973361 312.024,54.248 C312.456002,53.6986639 312.672,52.890672 312.672,51.824 C312.672,51.3866645 312.634667,50.9893351 312.56,50.632 C312.485333,50.2746649 312.365334,49.9706679 312.2,49.72 C312.034666,49.4693321 311.821335,49.2746674 311.56,49.136 C311.298665,48.9973326 310.976002,48.928 310.592,48.928 Z M315.888,48.592 C316.293335,48.3466654 316.765331,48.1653339 317.304,48.048 C317.842669,47.9306661 318.40533,47.872 318.992,47.872 C319.546669,47.872 319.991998,47.9466659 320.328,48.096 C320.664002,48.2453341 320.919999,48.4399988 321.096,48.68 C321.272001,48.9200012 321.389333,49.1839986 321.448,49.472 C321.506667,49.7600014 321.536,50.0479986 321.536,50.336 C321.536,50.9760032 321.52,51.599997 321.488,52.208 C321.456,52.816003 321.44,53.3919973 321.44,53.936 C321.44,54.3306686 321.456,54.7039982 321.488,55.056 C321.52,55.4080018 321.578666,55.7333318 321.664,56.032 L320.72,56.032 L320.384,54.912 L320.304,54.912 C320.208,55.0613341 320.088001,55.2079993 319.944,55.352 C319.799999,55.4960007 319.626668,55.6239994 319.424,55.736 C319.221332,55.8480006 318.986668,55.941333 318.72,56.016 C318.453332,56.090667 318.149335,56.128 317.808,56.128 C317.466665,56.128 317.149335,56.0746672 316.856,55.968 C316.562665,55.8613328 316.309334,55.7093343 316.096,55.512 C315.882666,55.3146657 315.714667,55.0773347 315.592,54.8 C315.469333,54.5226653 315.408,54.2080018 315.408,53.856 C315.408,53.3866643 315.503999,52.9946682 315.696,52.68 C315.888001,52.3653318 316.157332,52.1146676 316.504,51.928 C316.850668,51.7413324 317.266664,51.6080004 317.752,51.528 C318.237336,51.4479996 318.77333,51.408 319.36,51.408 L319.8,51.408 C319.944001,51.408 320.090666,51.4186666 320.24,51.44 C320.272,51.1199984 320.288,50.8320013 320.288,50.576 C320.288,49.9893304 320.170668,49.5786678 319.936,49.344 C319.701332,49.1093322 319.27467,48.992 318.656,48.992 C318.474666,48.992 318.280001,49.0053332 318.072,49.032 C317.863999,49.0586668 317.650668,49.0959998 317.432,49.144 C317.213332,49.1920002 317.005334,49.2506663 316.808,49.32 C316.610666,49.3893337 316.437334,49.4666662 316.288,49.552 L315.888,48.592 Z M318.16,55.008 C318.458668,55.008 318.725332,54.9680004 318.96,54.888 C319.194668,54.8079996 319.397332,54.7066673 319.568,54.584 C319.738668,54.4613327 319.879999,54.3253341 319.992,54.176 C320.104001,54.0266659 320.186666,53.8826674 320.24,53.744 L320.24,52.416 C320.090666,52.4053333 319.938667,52.3973334 319.784,52.392 C319.629333,52.3866666 319.477334,52.384 319.328,52.384 C318.997332,52.384 318.674668,52.4026665 318.36,52.44 C318.045332,52.4773335 317.768001,52.5466662 317.528,52.648 C317.287999,52.7493338 317.096001,52.8879991 316.952,53.064 C316.807999,53.2400009 316.736,53.461332 316.736,53.728 C316.736,54.1013352 316.869332,54.4079988 317.136,54.648 C317.402668,54.8880012 317.743998,55.008 318.16,55.008 Z M329.04,49.12 L326.544,49.12 L326.544,56 L325.264,56 L325.264,49.12 L322.768,49.12 L322.768,48 L329.04,48 L329.04,49.12 Z M335.296,51.264 L335.344,50.272 L335.296,50.272 L334.64,51.296 L331.04,56 L330.304,56 L330.304,48 L331.584,48 L331.584,52.88 L331.536,53.824 L331.6,53.824 L332.224,52.832 L335.824,48 L336.576,48 L336.576,56 L335.296,56 L335.296,51.264 Z M339.04,48.016 C339.413335,47.9946666 339.805331,47.9680002 340.216,47.936 C340.626669,47.9039998 341.135997,47.888 341.744,47.888 C342.800005,47.888 343.557331,48.050665 344.016,48.376 C344.474669,48.701335 344.704,49.1946634 344.704,49.856 C344.704,50.2293352 344.594668,50.5946649 344.376,50.952 C344.157332,51.3093351 343.797336,51.5733325 343.296,51.744 L343.296,51.808 C343.925336,51.9253339 344.367999,52.1439984 344.624,52.464 C344.880001,52.7840016 345.008,53.210664 345.008,53.744 C345.008,54.5760042 344.709336,55.1786648 344.112,55.552 C343.514664,55.9253352 342.618673,56.112 341.424,56.112 C340.975998,56.112 340.560002,56.0986668 340.176,56.072 C339.791998,56.0453332 339.413335,56.0160002 339.04,55.984 L339.04,48.016 Z M340.32,54.928 C340.522668,54.9493334 340.722666,54.9653333 340.92,54.976 C341.117334,54.9866667 341.349332,54.992 341.616,54.992 C342.33067,54.992 342.861332,54.8906677 343.208,54.688 C343.554668,54.4853323 343.728,54.1386691 343.728,53.648 C343.728,53.2639981 343.581335,52.9520012 343.288,52.712 C342.994665,52.4719988 342.47467,52.352 341.728,52.352 L340.32,52.352 L340.32,54.928 Z M341.888,51.376 C342.080001,51.376 342.266666,51.3440003 342.448,51.28 C342.629334,51.2159997 342.791999,51.1280006 342.936,51.016 C343.080001,50.9039994 343.197333,50.7733341 343.288,50.624 C343.378667,50.4746659 343.424,50.3146675 343.424,50.144 C343.424,49.7173312 343.296001,49.4213342 343.04,49.256 C342.783999,49.0906658 342.336003,49.008 341.696,49.008 C341.354665,49.008 341.085334,49.0133333 340.888,49.024 C340.690666,49.0346667 340.501334,49.0453333 340.32,49.056 L340.32,51.376 L341.888,51.376 Z" id="Кредитный-потребител" fill="#19A028"></path>
                <g id="Ресурс-2" fill-rule="nonzero">
                    <g id="Group" transform="translate(59.000000, 4.000000)">
                        <path d="M0.0777385159,30.644523 L0.0777385159,21.1681979 L2.26996466,21.1681979 C3.19280556,19.0190925 3.85316563,16.7665599 4.23674912,14.459364 C4.68510666,11.3994999 4.88528793,8.30838916 4.83533569,5.21625442 L4.83533569,2.51095406 L21.7590106,2.51095406 L21.7590106,21.1681979 L24.5498233,21.1681979 L23.8812721,30.644523 L19.590106,30.644523 L19.590106,25.7858657 L5.03745583,25.7858657 L4.70318021,30.6367491 L0.0777385159,30.644523 Z M16.6360424,7.13639576 L9.75618375,7.13639576 L9.75618375,9.46855124 C9.82925663,13.4548973 9.11875704,17.4167909 7.66501767,21.1293286 L16.6360424,21.1293286 L16.6360424,7.13639576 Z" id="Shape" fill="#FF9100"></path>
                        <path d="M42.2586572,23.4925795 C38.3674022,27.0718629 32.3824211,27.0718629 28.4911661,23.4925795 C26.7152973,21.7525905 25.7145524,19.371022 25.7145524,16.8848057 C25.7145524,14.3985893 26.7152973,12.0170208 28.4911661,10.2770318 C32.3809686,6.69402584 38.3688547,6.69402584 42.2586572,10.2770318 C44.0345261,12.0170208 45.0352709,14.3985893 45.0352709,16.8848057 C45.0352709,19.371022 44.0345261,21.7525905 42.2586572,23.4925795 Z M35.4254417,21.8289753 C36.6996794,21.8808098 37.9307475,21.3621654 38.7837456,20.4141343 C39.636177,19.4488727 40.0892301,18.195333 40.0508834,16.9081272 C40.0764338,15.6239189 39.605874,14.3793021 38.7371025,13.4332155 C37.8805909,12.4774962 36.6460211,11.9483949 35.3632509,11.9872792 C34.0890132,11.9354446 32.857945,12.4540891 32.004947,13.4021201 C31.1525156,14.3673817 30.6994624,15.6209214 30.7378092,16.9081272 C30.7114521,18.1924745 31.1821217,19.4373817 32.0515901,20.3830389 C32.9066568,21.3416377 34.1414294,21.8736711 35.4254417,21.8367491 L35.4254417,21.8289753 Z" id="Shape" fill="#FF9100"></path>
                        <polygon id="Shape" fill="#FF9100" points="48.3922261 25.7858657 48.3922261 7.96819788 53.5151943 7.96819788 58.3349823 15.4466431 63.2014134 7.96819788 68.3243816 7.96819788 68.3243816 25.7858657 63.2014134 25.7858657 63.2014134 15.0812721 58.24947 22.3964664 53.3597173 15.1823322 53.3597173 25.7858657"></polygon>
                        <path d="M83.9342756,26.190106 C80.7225821,26.2828058 77.6196985,25.0219067 75.3830389,22.7151943 C73.1328149,20.4461545 71.9034529,17.3587156 71.9780919,14.1639576 C72.0946247,10.0706202 74.2259095,6.29917674 77.6723498,4.08760716 C81.1187902,1.87603759 85.4352873,1.50996034 89.204947,3.10954064 C90.6466758,3.82392558 91.9600983,4.77221663 93.0918728,5.91590106 L90.0289753,9.43745583 C89.2197842,8.65068901 88.300658,7.98556633 87.3003534,7.46289753 C86.300782,7.02857491 85.2180663,6.81893144 84.1286219,6.84876325 C82.2828726,6.80087036 80.5112696,7.57559064 79.2932862,8.96325088 C78.0127152,10.3875739 77.3281205,12.2493374 77.3809187,14.1639576 C77.3329248,16.0731224 78.0171479,17.9283124 79.2932862,19.3491166 C80.5074482,20.727551 82.2688822,21.4987119 84.1053004,21.4558304 C85.2176298,21.4823015 86.3212404,21.2536015 87.3314488,20.7872792 C88.3876385,20.2402472 89.3612223,19.5466996 90.2233216,18.7272085 L93.4805654,22.2332155 C92.3328306,23.502606 90.935495,24.5214966 89.3759717,25.2261484 C87.6471291,25.9163915 85.7950217,26.2444791 83.9342756,26.190106 Z" id="Shape" fill="#19A028"></path>
                        <path d="M104.597173,26.190106 C101.580919,26.190106 99.2746761,25.2753828 97.6784452,23.4459364 C96.0822144,21.61649 95.2866902,18.9837456 95.2918728,15.5477032 C95.2918728,14.3297998 95.3359246,13.2492344 95.4240283,12.3060071 C95.5275414,11.2876925 95.722678,10.2807876 96.0070671,9.2975265 C96.2629043,8.32636487 96.6779524,7.40432753 97.2353357,6.56890459 C97.822518,5.7523213 98.568068,5.06229097 99.4275618,4.53992933 C100.451164,3.90895863 101.585665,3.47890336 102.770318,3.27279152 L112.316608,1.50812721 L113.093993,5.49611307 L103.337809,7.46289753 C100.632509,8.01743227 99.191755,9.41413428 99.0155477,11.6530035 C99.597278,10.776222 100.40233,10.07046 101.347703,9.60848057 C102.629512,8.94021688 104.061913,8.61357598 105.506714,8.66007067 C107.763462,8.6640818 109.925022,9.56980655 111.510534,11.1757581 C113.096046,12.7817097 113.974011,14.9546928 113.949117,17.2113074 C113.990242,19.6161402 113.026703,21.9291966 111.290459,23.5936396 C109.507758,25.3371667 107.08929,26.2753413 104.597173,26.190106 Z M104.667138,21.8367491 C105.847028,21.8807304 106.985755,21.3996184 107.776678,20.5229682 C109.393967,18.6253575 109.374108,15.8285167 107.730035,13.9540636 C106.943318,13.0663342 105.806403,12.568934 104.620495,12.5936396 C103.434566,12.551974 102.292764,13.0458033 101.510954,13.9385159 C100.707135,14.8510938 100.279311,16.0345551 100.313781,17.2501767 C100.283446,18.4573253 100.730381,19.6277376 101.557597,20.5074205 C102.353735,21.3784655 103.487366,21.8630926 104.667138,21.8367491 Z" id="Shape" fill="#19A028"></path>
                        <path d="M125.679859,26.190106 C123.194257,26.2766679 120.780515,25.3476578 118.994346,23.6169611 C117.221519,21.8479666 116.268872,19.418434 116.366784,16.9159011 C116.306493,14.4793724 117.202173,12.1160065 118.862191,10.3314488 C120.47639,8.55685577 122.784349,7.57462479 125.182332,7.64169611 C127.996466,7.64169611 130.147232,8.57196702 131.634629,10.4325088 C133.155163,12.3968758 133.944048,14.8295007 133.865724,17.3123675 C133.865724,17.5766784 133.842403,18.019788 133.79576,18.6416961 L121.357597,18.6416961 C121.533786,19.6577937 122.065589,20.578117 122.857951,21.2381625 C123.67965,21.8576636 124.690498,22.1735536 125.718728,22.1321555 C127.348161,22.1150166 128.905776,21.4590318 130.056537,20.3053004 L132.94841,22.8628975 C131.190193,25.0617518 128.493221,26.2963018 125.679859,26.190106 Z M121.326502,15.4855124 L128.937102,15.4855124 C128.838325,14.459605 128.41329,13.4923772 127.724382,12.7257951 C127.063506,12.0340324 126.138433,11.6577797 125.182332,11.6918728 C124.231958,11.6642452 123.312276,12.029868 122.640283,12.7024735 C121.91968,13.4682951 121.459813,14.4424498 121.326502,15.4855124 Z" id="Shape" fill="#19A028"></path>
                        <path d="M136.368905,31.1109541 L136.368905,7.96819788 L141.421908,7.96819788 L141.421908,10.5257951 C142.666408,8.68792593 144.753105,7.60073922 146.972438,7.63392226 C149.147483,7.61533504 151.227796,8.52264562 152.693993,10.1293286 C154.290224,11.7929329 155.088339,14.0551237 155.088339,16.9159011 C155.088339,19.7766784 154.295406,22.0207303 152.709541,23.6480565 C151.23496,25.2493519 149.149076,26.1481476 146.972438,26.1201413 C144.809315,26.146081 142.757468,25.1632633 141.421908,23.4614841 L141.421908,31.1109541 L136.368905,31.1109541 Z M142.587986,20.4530035 C143.36656,21.3536176 144.507394,21.8584369 145.697527,21.8289753 C146.886137,21.8508333 148.023889,21.347378 148.807067,20.4530035 C149.677662,19.4583793 150.131485,18.1665168 150.074205,16.8459364 C150.124995,15.5450828 149.670978,14.274948 148.807067,13.3010601 C148.023889,12.4066857 146.886137,11.9032303 145.697527,11.9250883 C144.507394,11.8956267 143.36656,12.400446 142.587986,13.3010601 C141.729303,14.3012291 141.284461,15.5912714 141.34417,16.9081272 C141.294471,18.2074326 141.745243,19.476273 142.603534,20.4530035 L142.587986,20.4530035 Z" id="Shape" fill="#19A028"></path>
                        <path d="M166.959011,26.190106 C164.473257,26.2775736 162.059172,25.3484317 160.273498,23.6169611 C158.500671,21.8479666 157.548024,19.418434 157.645936,16.9159011 C157.585645,14.4793724 158.481324,12.1160065 160.141343,10.3314488 C161.756158,8.55772264 164.063699,7.57566935 166.461484,7.64169611 C169.275618,7.64169611 171.426384,8.57196702 172.913781,10.4325088 C174.434315,12.3968758 175.2232,14.8295007 175.144876,17.3123675 C175.144876,17.5766784 175.121555,18.019788 175.074912,18.6416961 L162.636749,18.6416961 C162.810897,19.6567026 163.339858,20.5768748 164.129329,21.2381625 C164.951028,21.8576636 165.961876,22.1735536 166.990106,22.1321555 C168.614135,22.1109643 170.165437,21.4552881 171.312367,20.3053004 L174.20424,22.8628975 C172.450982,25.0550154 169.764283,26.2888215 166.959011,26.190106 Z M162.605654,15.4855124 L170.216254,15.4855124 C170.117477,14.459605 169.692442,13.4923772 169.003534,12.7257951 C168.342658,12.0340324 167.417585,11.6577797 166.461484,11.6918728 C165.51111,11.6642452 164.591428,12.029868 163.919435,12.7024735 C163.195996,13.4672635 162.733359,14.4415239 162.59788,15.4855124 L162.605654,15.4855124 Z" id="Shape" fill="#19A028"></path>
                        <polygon id="Shape" fill="#19A028" points="193.693286 25.7858657 188.609187 25.7858657 188.609187 21.1681979 186.479152 18.6727915 181.99364 25.7858657 176.342049 25.7858657 183.089753 15.345583 176.536396 7.96042403 182.359011 7.96042403 188.578092 15.5399293 188.578092 7.96819788 193.662191 7.96819788 193.662191 15.5477032 199.881272 7.96819788 205.734982 7.96819788 199.243816 15.345583 205.960424 25.7858657 200.339929 25.7858657 195.815548 18.6727915 193.685512 21.1681979"></polygon>
                        <path d="M215.70106,26.190106 C213.215306,26.2775736 210.801222,25.3484317 209.015548,23.6169611 C207.242721,21.8479666 206.290073,19.418434 206.387986,16.9159011 C206.327695,14.4793724 207.223374,12.1160065 208.883392,10.3314488 C210.497592,8.55685577 212.805551,7.57462479 215.203534,7.64169611 C218.017668,7.64169611 220.168433,8.57196702 221.65583,10.4325088 C223.176365,12.3968758 223.96525,14.8295007 223.886926,17.3123675 C223.886926,17.5766784 223.863604,18.019788 223.816961,18.6416961 L211.378799,18.6416961 C211.552946,19.6567026 212.081907,20.5768748 212.871378,21.2381625 C213.693077,21.8576636 214.703925,22.1735536 215.732155,22.1321555 C217.356185,22.1109643 218.907487,21.4552881 220.054417,20.3053004 L222.94629,22.8628975 C221.193031,25.0550154 218.506332,26.2888215 215.70106,26.190106 Z M211.347703,15.4855124 L218.958304,15.4855124 C218.859527,14.459605 218.434491,13.4923772 217.745583,12.7257951 C217.084707,12.0340324 216.159635,11.6577797 215.203534,11.6918728 C214.25316,11.6642452 213.333478,12.029868 212.661484,12.7024735 C211.940881,13.4682951 211.481015,14.4424498 211.347703,15.4855124 Z" id="Shape" fill="#19A028"></path>
                        <polygon id="Shape" fill="#19A028" points="243.663604 7.96819788 243.663604 25.7858657 238.610601 25.7858657 238.610601 18.9759717 232.391519 18.9759717 232.391519 25.7936396 227.338516 25.7936396 227.338516 7.96819788 232.391519 7.96819788 232.391519 14.8169611 238.610601 14.8169611 238.610601 7.96819788"></polygon>
                        <polygon id="Shape" fill="#19A028" points="264.481979 7.96819788 264.481979 25.7858657 259.592226 25.7858657 259.592226 15.4155477 252.642403 25.7858657 247.884806 25.7858657 247.884806 7.96819788 252.774558 7.96819788 252.774558 18.3462898 259.724382 7.93710247"></polygon>
                        <path d="M285.261484,7.96819788 L285.261484,25.7858657 L280.371731,25.7858657 L280.371731,15.4155477 L273.421908,25.7858657 L268.664311,25.7858657 L268.664311,7.96819788 L273.554064,7.96819788 L273.554064,18.3462898 L280.503887,7.93710247 L285.261484,7.96819788 Z M280.869258,4.94416961 C278.665997,6.71869877 275.524109,6.71869877 273.320848,4.94416961 C272.302965,3.96406386 271.671172,2.65081788 271.540636,1.24381625 L274.502473,0.715194346 C274.968905,2.20259128 275.844759,2.94628975 277.130035,2.94628975 C278.415312,2.94628975 279.291166,2.20259128 279.757597,0.715194346 L282.719435,1.24381625 C282.56952,2.66014146 281.91237,3.97444313 280.869258,4.94416961 Z" id="Shape" fill="#19A028"></path>
                    </g>
                    <polygon id="Shape" fill="#19A028" points="21.9692308 5.87692308 43.9692308 19.1615385 43.9692308 13.2769231 21.9692308 0 0 13.2692308 0 19.1538462"></polygon>
                    <path d="M42.7538462,43.3307692 C40.7658426,41.2063087 38.2327713,39.6683726 35.4307692,38.8846154 C39.7783054,32.5685654 39.1436441,24.0779147 33.9054392,18.478382 C28.6672342,12.8788492 20.2377099,11.6800732 13.6461155,15.5972713 C7.05452108,19.5144695 4.07795594,27.4915619 6.49230769,34.7692308 C4.48057162,35.5705508 2.67646311,36.8171214 1.21538462,38.4153846 C0.484358839,39.2908355 0.0889489482,40.3979832 0.1,41.5384615 L0.1,46.6846154 C0.0876978799,47.4555584 0.322189209,48.2102432 0.769230769,48.8384615 C2.42307692,51.0923077 5.43076923,52.8769231 9.16923077,53.9615385 C12.1076923,57.6384615 18.6615385,60 26.0538462,60 C34.0615385,60 40.8923077,57.3461538 43.4692308,53.2384615 C43.7227603,52.8159869 43.8533017,52.3311186 43.8461538,51.8384615 L43.8461538,46.5 C43.8639974,45.3483383 43.4774738,44.2268753 42.7538462,43.3307692 Z M21.9846154,41.2615385 C15.5663689,41.2615371 10.3629562,36.0592703 10.3615413,29.6410239 C10.3601263,23.2227776 15.5612447,18.0182171 21.9794906,18.0153857 C28.3977364,18.0125544 33.6034446,23.2125242 33.6076923,29.6307692 C33.6034555,36.0495074 28.4033493,41.2530551 21.9846154,41.2615385 Z M35.2846154,48.3846154 C35.5476284,47.9623167 35.6862639,47.4744262 35.6846154,46.9769231 L35.6846154,43.7307692 C38.3615385,44.8615385 40.0461538,46.4076923 40.0461538,47.8615385 C40.0461538,50.1692308 35.3153846,53.3461538 27.5076923,53.7 C31.0692308,52.5230769 33.8461538,50.6769231 35.2846154,48.3846154 Z M21.9846154,45.9615385 C25.5402871,45.9666981 28.9993706,44.8046622 31.8307692,42.6538462 C31.8417316,42.7715402 31.8417316,42.8899983 31.8307692,43.0076923 C31.8307692,45.4615385 26.5076923,48.8846154 17.8384615,48.8846154 C9.16923077,48.8846154 3.84615385,45.4538462 3.84615385,43 C3.84615385,41.5461538 5.63076923,39.9230769 8.46153846,38.7769231 C11.4965192,43.2687906 16.5635471,45.9608293 21.9846154,45.9615385 Z" id="Shape" fill="#FF9100"></path>
                    <path d="M23.0769231,31.9230769 C26.6538462,31.9230769 28.9692308,29.9 28.9692308,26.7769231 C28.9692308,23.6538462 26.7769231,21.6692308 23.3769231,21.6692308 L17.4307692,21.6692308 L17.4307692,28.7461538 L15.3307692,28.7461538 L15.3307692,31.9230769 L17.4307692,31.9230769 L17.4307692,32.9307692 L15.3307692,32.9307692 L15.3307692,36.1076923 L17.4307692,36.1076923 L17.4307692,37.8461538 L20.9769231,37.8461538 L20.9769231,36.0923077 L23.8,36.0923077 L23.8,32.9153846 L20.9769231,32.9153846 L20.9769231,31.9230769 L23.0769231,31.9230769 Z M23.1769231,28.7153846 L20.9769231,28.7153846 L20.9769231,24.9076923 L23.1230769,24.9076923 C23.9692308,24.9076923 25.3846154,25.1538462 25.3846154,26.7923077 C25.3846154,27.9615385 24.5230769,28.7153846 23.1846154,28.7153846 L23.1769231,28.7153846 Z" id="Shape" fill="#19A028"></path>
                </g>
            </g>
        </g>
    </g>
</svg>