<svg width="45px" height="60px" viewBox="0 0 45 60" version="1.1" xmlns="http://www.w3.org/2000/svg" xmlns:xlink="http://www.w3.org/1999/xlink">
    <!-- Generator: Sketch 49.1 (51147) - http://www.bohemiancoding.com/sketch -->
    <desc>Created with Sketch.</desc>
    <defs></defs>
    <g id="Page-1" stroke="none" stroke-width="1" fill="none" fill-rule="evenodd">
        <g id="ds_dom-zaim" transform="translate(-4027.000000, -434.000000)">
            <g id="logo" transform="translate(4027.000000, 434.000000)">
                <polyline id="Fill-36" fill="#00A612" points="21.972 6.835 43.994 19.792 43.994 13.931 21.865 0.861 21.857 0.861 0.973 13.924 0.973 19.784 21.972 6.835"></polyline>
                <path d="M35.732,48.422 C35.993,48.007 36.131,47.522 36.131,47.021 L36.131,43.788 C38.797,44.916 40.472,46.453 40.472,47.903 C40.472,50.206 35.759,53.364 27.983,53.718 C31.535,52.546 34.298,50.711 35.732,48.422 Z M21.82,46.479 C25.798,46.479 29.445,45.04 32.274,42.659 C32.303,42.795 32.323,42.93 32.323,43.063 C32.323,45.504 27.021,48.912 18.388,48.912 C9.754,48.912 4.452,45.504 4.452,43.063 C4.452,41.75 5.914,40.293 8.263,39.185 C11.177,43.576 16.165,46.479 21.82,46.479 Z M21.82,41.798 C15.435,41.798 10.241,36.604 10.241,30.22 C10.241,23.835 15.435,18.641 21.82,18.641 C28.204,18.641 33.398,23.835 33.398,30.22 C33.398,36.604 28.204,41.798 21.82,41.798 Z M43.17,43.389 C41.554,41.466 38.892,39.885 35.581,38.863 C37.161,36.357 38.079,33.395 38.079,30.22 C38.079,21.254 30.785,13.96 21.82,13.96 C12.854,13.96 5.56,21.254 5.56,30.22 C5.56,31.953 5.835,33.623 6.34,35.191 C4.432,36.103 2.878,37.227 1.794,38.499 C1.081,39.337 0.688,40.44 0.688,41.605 L0.688,46.729 C0.688,47.512 0.928,48.253 1.382,48.874 C3.028,51.121 6.024,52.894 9.745,53.977 C12.65,57.642 19.178,59.997 26.536,59.997 C34.509,59.997 41.317,57.354 43.88,53.263 C44.142,52.848 44.279,52.363 44.279,51.862 L44.279,46.55 C44.279,45.363 43.886,44.24 43.17,43.389 Z" id="Fill-37" fill="#FF9100"></path>
                <path d="M20.585,25.281 L22.953,25.281 C24.485,25.281 25.44,26.018 25.44,27.391 C25.44,28.624 24.544,29.54 23.012,29.54 L20.585,29.54 L20.585,25.281 Z M22.913,32.266 C26.038,32.266 28.544,30.594 28.544,27.371 C28.544,24.485 26.534,22.516 23.211,22.516 L17.52,22.516 L17.52,29.56 L15.43,29.56 L15.43,32.253 L17.52,32.253 L17.52,33.724 L15.43,33.724 L15.43,36.417 L17.52,36.417 L17.52,38.149 L20.585,38.149 L20.585,36.417 L23.394,36.417 L23.394,33.724 L20.585,33.724 L20.585,32.266 L22.913,32.266 Z" id="Fill-38" fill="#00A612"></path>
            </g>
        </g>
    </g>
</svg>